{"title":"SNL-Best of Dana Carvey(dvdripmp4)","uid":7704869,"size":1279750602,"categoryP":"video","categoryS":"tv_shows","magnet":"?xt=urn:btih:a0c951ac99770e0abe34ababf7a44ecd5aae9ed9&amp;dn=SNL-Best+of+Dana+Carvey%28dvdripmp4%29&amp;tr=udp%3A%2F%2Ftracker.openbittorrent.com%3A80&amp;tr=udp%3A%2F%2Fopen.demonii.com%3A1337&amp;tr=udp%3A%2F%2Ftracker.coppersurfer.tk%3A6969&amp;tr=udp%3A%2F%2Fexodus.desync.com%3A6969","seeders":1,"leechers":0,"uploader":"russell887","files":1,"time":1349657119,"description":"This edition of Saturday Night Live represents the most versatile actor and stand-up comedian ever! Dana always played crazy characters from Church Lady, Ross Perot, George Bush, Garth Algar, Grumpy Old Man, the gross Massive Head-Wound Harry, John McLaughlin, to Johnny Carson and Charles Grodin. \n\nINFO: \nFormat : MPEG-4\nFormat profile : Base Media\nCodec ID : isom\nFile size : 1.19 GiB\nDuration : 1h 29mn\nOverall bit rate mode : Variable\nOverall bit rate : 1 906 Kbps\nWriting application : Lavf52.104.0\n\nVideo\nID : 1\nFormat : MPEG-4 Visual\nFormat profile : Simple@L3\nFormat settings, BVOP : No\nFormat settings, QPel : No\nFormat settings, GMC : No warppoints\nFormat settings, Matrix : Default (H.263)\nCodec ID : 20\nDuration : 1h 29mn\nBit rate : 1 773 Kbps\nWidth : 720 pixels\nHeight : 480 pixels\nDisplay aspect ratio : 4:3\nOriginal display aspect ratio : 4:3\nFrame rate mode : Constant\nFrame rate : 29.970 fps\nStandard : NTSC\nColor space : YUV\nChroma subsampling : 4:2:0\nBit depth : 8 bits\nScan type : Progressive\nCompression mode : Lossy\nBits/(Pixel*Frame) : 0.171\nStream size : 1.11 GiB (93%)\nWriting library : XviD 1.2.1 (UTC 2008-12-04)\n\nAudio\nID : 2\nFormat : AAC\nFormat/Info : Advanced Audio Codec\nFormat profile : LC\nCodec ID : 40\nDuration : 1h 29mn\nBit rate mode : Variable\nBit rate : 128 Kbps\nChannel(s) : 2 channels\nChannel positions : Front: L R\nSampling rate : 44.1 KHz\nCompression mode : Lossy\nStream size : 81.8 MiB (7%)\n\nSIZE: 1.19GB","torrent":{"xt":"urn:btih:a0c951ac99770e0abe34ababf7a44ecd5aae9ed9","amp;dn":"SNL-Best+of+Dana+Carvey%28dvdripmp4%29","amp;tr":["udp%3A%2F%2Ftracker.openbittorrent.com%3A80","udp%3A%2F%2Fopen.demonii.com%3A1337","udp%3A%2F%2Ftracker.coppersurfer.tk%3A6969","udp%3A%2F%2Fexodus.desync.com%3A6969"],"infoHash":"a0c951ac99770e0abe34ababf7a44ecd5aae9ed9","infoHashBuffer":{"type":"Buffer","data":[160,201,81,172,153,119,14,10,190,52,171,171,247,164,78,205,90,174,158,217]},"announce":[],"urlList":[]}}